<svg version="1.1" id="Layer_1" xmlns="http://www.w3.org/2000/svg" xmlns:xlink="http://www.w3.org/1999/xlink" x="0px" y="0px"
	 width="100%" viewBox="0 0 787 699" enable-background="new 0 0 787 699" xml:space="preserve">
<path fill="#FFFFFF" opacity="1.000000" stroke="none" 
	d="
M788.000000,249.000000 
	C788.000000,399.666656 788.000000,549.833313 788.000000,700.000000 
	C525.666687,700.000000 263.333344,700.000000 1.000000,700.000000 
	C1.000000,467.000000 1.000000,234.000000 1.000000,1.000000 
	C263.333344,1.000000 525.666687,1.000000 788.000000,1.000000 
	C788.000000,83.500000 788.000000,166.000000 788.000000,249.000000 
M740.072754,37.011753 
	C713.273865,37.007835 686.471069,37.248035 659.678772,36.825890 
	C653.098999,36.722214 649.012573,42.013298 649.008728,47.443142 
	C648.989685,74.574944 648.974670,101.706818 649.021729,128.838562 
	C649.031006,134.164764 652.999023,137.994949 658.233032,137.996429 
	C685.364868,138.004105 712.496704,138.000031 739.628540,137.999985 
	C747.940979,137.999969 750.993225,134.925003 750.996399,126.471710 
	C751.006226,100.505058 751.014099,74.538376 750.964294,48.571827 
	C750.961365,47.047379 750.443176,45.523911 749.855652,43.353374 
	C746.903320,41.290962 743.950928,39.228550 740.072754,37.011753 
M514.443848,664.902710 
	C583.437134,664.935059 652.430481,664.970459 721.423767,664.965027 
	C722.282349,664.964966 723.140991,664.441833 724.774902,664.022400 
	C735.427429,661.435547 742.831482,655.025391 747.849304,644.645142 
	C748.566162,641.356873 749.893799,638.071777 749.910767,634.779907 
	C750.356628,548.559509 750.669250,462.338348 750.995911,376.117279 
	C751.026855,367.953705 751.000000,359.789948 751.000000,351.626251 
	C751.000000,289.982117 751.002319,228.337952 750.997375,166.693802 
	C750.996643,157.720291 747.454407,154.001831 738.945923,154.000961 
	C713.122009,153.998322 687.295044,154.224152 661.476135,153.865570 
	C653.566833,153.755722 648.866272,158.716064 648.878845,166.260666 
	C649.056885,273.054688 649.112488,379.849335 648.895752,486.643219 
	C648.856995,505.758240 650.811829,524.977722 647.012634,544.715088 
	C641.564270,554.915161 634.040222,562.445862 621.072144,564.011719 
	C608.242798,564.007812 595.392334,564.461243 582.590210,563.868958 
	C570.249634,563.298157 560.027222,558.030151 554.221313,546.545532 
	C528.083008,494.841827 502.043335,443.088043 476.054718,391.308838 
	C469.210876,377.673279 462.676483,363.882385 456.640625,349.816376 
	C495.638733,271.479309 534.629578,193.138641 573.639832,114.807625 
	C584.246948,93.508987 594.918335,72.242340 605.546997,50.954426 
	C608.163757,45.713326 607.021362,41.925583 601.935425,39.011917 
	C600.681458,38.293514 599.312805,37.775402 597.068420,37.011780 
	C566.871826,37.007851 536.675232,36.990223 506.478699,37.042389 
	C505.040405,37.044876 503.603149,37.665127 501.829346,38.629528 
	C499.656067,41.510452 496.977417,44.137775 495.385376,47.310375 
	C472.151978,93.610008 449.104980,140.003143 425.919403,186.326859 
	C417.405762,203.336655 408.646271,220.223373 399.333099,236.867081 
	C398.881042,236.199646 398.348480,235.572815 397.988464,234.858978 
	C375.316406,189.906448 352.657837,144.947098 329.999664,99.987541 
	C326.432465,92.909370 322.872589,85.827515 318.833527,77.801910 
	C317.518311,80.356956 316.713165,81.883255 315.941315,83.426193 
	C292.616180,130.051559 269.316101,176.689499 245.938522,223.288528 
	C243.585617,227.978638 240.766708,232.434967 237.850677,236.346146 
	C237.640732,236.093460 237.372162,235.870071 237.229111,235.583923 
	C205.818726,172.754517 174.396957,109.930786 143.054779,47.067364 
	C140.625687,42.195290 137.854706,38.045929 131.068420,37.011784 
	C101.205078,37.007854 71.341721,36.990074 41.478477,37.042397 
	C40.040230,37.044914 38.603062,37.665115 36.803394,38.651817 
	C31.246616,41.360901 30.140793,46.241375 33.560734,53.084045 
	C67.520416,121.031067 101.467941,188.984177 135.452881,256.918579 
	C150.984756,287.966064 166.592285,318.975708 182.008759,350.745483 
	C150.150970,414.525513 118.299408,478.308655 86.433022,542.084351 
	C68.447617,578.079407 50.430016,614.058289 32.444584,650.053345 
	C28.029093,658.890198 31.768974,664.999573 41.538300,664.999756 
	C71.196541,665.000427 100.856346,664.840515 130.511719,665.132141 
	C136.574600,665.191711 139.568619,662.772034 142.121078,657.633057 
	C162.958252,615.680298 184.027298,573.842712 204.998291,531.956299 
	C215.732330,510.516724 226.393478,489.040588 237.177902,467.626434 
	C237.575012,466.837921 238.928497,466.531067 240.149261,466.653656 
	C266.460419,519.089294 292.771545,571.524902 319.651337,625.093811 
	C324.718964,614.491699 329.084442,605.061829 333.700958,595.756592 
	C346.882385,569.187500 360.190918,542.681458 373.400360,516.126221 
	C382.032440,498.772858 390.579041,481.377045 399.808990,464.295593 
	C399.941986,464.773102 399.999634,465.288696 400.218719,465.722748 
	C424.364807,513.565247 448.518402,561.403931 472.683624,609.236755 
	C479.047974,621.834351 485.450287,634.412842 492.143158,647.645203 
	C496.939911,656.444702 504.025909,662.214905 514.443848,664.902710 
z"/>
<path fill="#0080FF" opacity="1.000000" stroke="none" 
	d="
M399.163940,464.000275 
	C390.579041,481.377045 382.032440,498.772858 373.400360,516.126221 
	C360.190918,542.681458 346.882385,569.187500 333.700958,595.756592 
	C329.084442,605.061829 324.718964,614.491699 319.651337,625.093811 
	C292.771545,571.524902 266.460419,519.089294 240.057037,465.959137 
	C232.301193,449.793396 224.706100,434.287750 216.957886,418.859009 
	C205.417160,395.878357 193.768341,372.951996 182.165512,350.002533 
	C166.592285,318.975708 150.984756,287.966064 135.452881,256.918579 
	C101.467941,188.984177 67.520416,121.031067 33.560734,53.084045 
	C30.140793,46.241375 31.246616,41.360901 37.441841,38.325554 
	C67.680145,37.999531 97.280022,38.013588 126.879791,37.964340 
	C128.585907,37.961502 130.291183,37.443470 131.996841,37.165207 
	C137.854706,38.045929 140.625687,42.195290 143.054779,47.067364 
	C174.396957,109.930786 205.818726,172.754517 237.229111,235.583923 
	C237.372162,235.870071 237.640732,236.093460 237.942963,237.040283 
	C245.698853,253.205963 253.293961,268.711884 261.042084,284.140930 
	C272.582672,307.122009 284.231262,330.048859 295.990662,353.325073 
	C303.800964,368.752502 311.454498,383.853638 319.647583,400.019287 
	C327.869812,383.231140 335.517975,367.615051 343.473206,351.831726 
	C355.722992,327.390625 367.676300,303.121948 379.604492,278.840973 
	C386.423706,264.959747 393.202118,251.058472 399.998932,237.166229 
	C408.646271,220.223373 417.405762,203.336655 425.919403,186.326859 
	C449.104980,140.003143 472.151978,93.610008 495.385376,47.310375 
	C496.977417,44.137775 499.656067,41.510452 502.454834,38.314411 
	C533.013428,37.999531 562.946533,38.013435 592.879639,37.964359 
	C594.585754,37.961563 596.291138,37.443485 597.996826,37.165222 
	C599.312805,37.775402 600.681458,38.293514 601.935425,39.011917 
	C607.021362,41.925583 608.163757,45.713326 605.546997,50.954426 
	C594.918335,72.242340 584.246948,93.508987 573.639832,114.807625 
	C534.629578,193.138641 495.638733,271.479309 455.971924,350.049927 
	C437.322571,386.254486 419.333588,422.221375 401.385193,458.208527 
	C400.466614,460.050262 399.896362,462.065704 399.163940,464.000275 
z"/>
<path fill="#000000" opacity="1.000000" stroke="none" 
	d="
M647.166382,543.999390 
	C650.811829,524.977722 648.856995,505.758240 648.895752,486.643219 
	C649.112488,379.849335 649.056885,273.054688 648.878845,166.260666 
	C648.866272,158.716064 653.566833,153.755722 661.476135,153.865570 
	C687.295044,154.224152 713.122009,153.998322 738.945923,154.000961 
	C747.454407,154.001831 750.996643,157.720291 750.997375,166.693802 
	C751.002319,228.337952 751.000000,289.982117 751.000000,351.626251 
	C751.000000,359.789948 751.026855,367.953705 750.995911,376.117279 
	C750.669250,462.338348 750.356628,548.559509 749.910767,634.779907 
	C749.893799,638.071777 748.566162,641.356873 747.433594,644.388672 
	C746.048401,643.421692 745.139587,642.214233 744.098999,642.087219 
	C739.707947,641.551575 735.282715,641.220215 730.860718,641.028931 
	C718.233459,640.482727 706.724854,636.300354 695.785767,630.319275 
	C685.398865,624.640076 677.102051,616.879944 674.567078,604.896423 
	C672.985718,597.421204 673.021851,589.618286 671.930054,582.020264 
	C671.105164,576.280212 670.415405,570.324097 668.298035,565.008972 
	C664.374146,555.159424 655.969482,549.247925 647.166382,543.999390 
z"/>
<path fill="#000000" opacity="1.000000" stroke="none" 
	d="
M182.087128,350.374023 
	C193.768341,372.951996 205.417160,395.878357 216.957886,418.859009 
	C224.706100,434.287750 232.301193,449.793396 239.900558,465.632202 
	C238.928497,466.531067 237.575012,466.837921 237.177902,467.626434 
	C226.393478,489.040588 215.732330,510.516724 204.998291,531.956299 
	C184.027298,573.842712 162.958252,615.680298 142.121078,657.633057 
	C139.568619,662.772034 136.574600,665.191711 130.511719,665.132141 
	C100.856346,664.840515 71.196541,665.000427 41.538300,664.999756 
	C31.768974,664.999573 28.029093,658.890198 32.444584,650.053345 
	C50.430016,614.058289 68.447617,578.079407 86.433022,542.084351 
	C118.299408,478.308655 150.150970,414.525513 182.087128,350.374023 
z"/>
<path fill="#000000" opacity="1.000000" stroke="none" 
	d="
M399.486481,464.147949 
	C399.896362,462.065704 400.466614,460.050262 401.385193,458.208527 
	C419.333588,422.221375 437.322571,386.254486 455.651642,350.223145 
	C462.676483,363.882385 469.210876,377.673279 476.054718,391.308838 
	C502.043335,443.088043 528.083008,494.841827 554.221313,546.545532 
	C560.027222,558.030151 570.249634,563.298157 582.590210,563.868958 
	C595.392334,564.461243 608.242798,564.007812 621.287415,564.438354 
	C609.703857,564.909912 597.903625,565.067566 586.106995,564.926575 
	C582.857727,564.887756 581.533020,565.866821 580.919800,569.125366 
	C578.693359,580.955750 574.749634,592.194763 568.741638,602.699829 
	C561.651794,615.096680 551.276245,622.235779 536.987244,624.089294 
	C527.838806,625.275940 518.594666,626.613342 509.773773,629.186951 
	C500.998779,631.747131 493.739746,636.970093 491.835175,647.000061 
	C485.450287,634.412842 479.047974,621.834351 472.683624,609.236755 
	C448.518402,561.403931 424.364807,513.565247 400.218719,465.722748 
	C399.999634,465.288696 399.941986,464.773102 399.486481,464.147949 
z"/>
<path fill="#000000" opacity="1.000000" stroke="none" 
	d="
M399.666016,237.016663 
	C393.202118,251.058472 386.423706,264.959747 379.604492,278.840973 
	C367.676300,303.121948 355.722992,327.390625 343.394531,351.460388 
	C335.218384,335.568970 327.427917,319.881683 319.296936,303.508789 
	C311.399414,319.224823 303.868652,334.151337 296.434296,349.125763 
	C295.880524,350.241211 296.017883,351.699738 295.833923,352.998779 
	C284.231262,330.048859 272.582672,307.122009 261.042084,284.140930 
	C253.293961,268.711884 245.698853,253.205963 238.099655,237.367111 
	C240.766708,232.434967 243.585617,227.978638 245.938522,223.288528 
	C269.316101,176.689499 292.616180,130.051559 315.941315,83.426193 
	C316.713165,81.883255 317.518311,80.356956 318.833527,77.801910 
	C322.872589,85.827515 326.432465,92.909370 329.999664,99.987541 
	C352.657837,144.947098 375.316406,189.906448 397.988464,234.858978 
	C398.348480,235.572815 398.881042,236.199646 399.666016,237.016663 
z"/>
<path fill="#0080FF" opacity="1.000000" stroke="none" 
	d="
M491.989166,647.322632 
	C493.739746,636.970093 500.998779,631.747131 509.773773,629.186951 
	C518.594666,626.613342 527.838806,625.275940 536.987244,624.089294 
	C551.276245,622.235779 561.651794,615.096680 568.741638,602.699829 
	C574.749634,592.194763 578.693359,580.955750 580.919800,569.125366 
	C581.533020,565.866821 582.857727,564.887756 586.106995,564.926575 
	C597.903625,565.067566 609.703857,564.909912 621.750305,564.515381 
	C634.040222,562.445862 641.564270,554.915161 647.089478,544.357239 
	C655.969482,549.247925 664.374146,555.159424 668.298035,565.008972 
	C670.415405,570.324097 671.105164,576.280212 671.930054,582.020264 
	C673.021851,589.618286 672.985718,597.421204 674.567078,604.896423 
	C677.102051,616.879944 685.398865,624.640076 695.785767,630.319275 
	C706.724854,636.300354 718.233459,640.482727 730.860718,641.028931 
	C735.282715,641.220215 739.707947,641.551575 744.098999,642.087219 
	C745.139587,642.214233 746.048401,643.421692 747.090820,644.566040 
	C742.831482,655.025391 735.427429,661.435547 723.922852,664.022400 
	C656.371094,664.014954 589.671387,664.005371 522.971680,664.006897 
	C519.981262,664.007019 516.990845,664.108521 514.000427,664.162781 
	C504.025909,662.214905 496.939911,656.444702 491.989166,647.322632 
z"/>
<path fill="#000000" opacity="1.000000" stroke="none" 
	d="
M750.164795,43.999985 
	C750.443176,45.523911 750.961365,47.047379 750.964294,48.571827 
	C751.014099,74.538376 751.006226,100.505058 750.996399,126.471710 
	C750.993225,134.925003 747.940979,137.999969 739.628540,137.999985 
	C712.496704,138.000031 685.364868,138.004105 658.233032,137.996429 
	C652.999023,137.994949 649.031006,134.164764 649.021729,128.838562 
	C648.974670,101.706818 648.989685,74.574944 649.008728,47.443142 
	C649.012573,42.013298 653.098999,36.722214 659.678772,36.825890 
	C686.471069,37.248035 713.273865,37.007835 740.287842,37.438347 
	C730.559265,37.864944 720.615662,37.864944 710.561340,37.864944 
	C715.456055,52.261063 736.915833,74.632103 750.164795,78.901497 
	C750.164795,67.134850 750.164795,55.567417 750.164795,43.999985 
z"/>
<path fill="#0080FF" opacity="1.000000" stroke="none" 
	d="
M750.010254,43.676682 
	C750.164795,55.567417 750.164795,67.134850 750.164795,78.901497 
	C736.915833,74.632103 715.456055,52.261063 710.561340,37.864944 
	C720.615662,37.864944 730.559265,37.864944 740.750732,37.515541 
	C743.950928,39.228550 746.903320,41.290962 750.010254,43.676682 
z"/>
<path fill="#000000" opacity="1.000000" stroke="none" 
	d="
M514.222168,664.532715 
	C516.990845,664.108521 519.981262,664.007019 522.971680,664.006897 
	C589.671387,664.005371 656.371094,664.014954 723.535156,664.092590 
	C723.140991,664.441833 722.282349,664.964966 721.423767,664.965027 
	C652.430481,664.970459 583.437134,664.935059 514.222168,664.532715 
z"/>
<path fill="#000000" opacity="1.000000" stroke="none" 
	d="
M597.532593,37.088501 
	C596.291138,37.443485 594.585754,37.961563 592.879639,37.964359 
	C562.946533,38.013435 533.013428,37.999531 502.622864,37.998489 
	C503.603149,37.665127 505.040405,37.044876 506.478699,37.042389 
	C536.675232,36.990223 566.871826,37.007851 597.532593,37.088501 
z"/>
<path fill="#000000" opacity="1.000000" stroke="none" 
	d="
M131.532623,37.088493 
	C130.291183,37.443470 128.585907,37.961502 126.879791,37.964340 
	C97.280022,38.013588 67.680145,37.999531 37.622841,37.998486 
	C38.603062,37.665115 40.040230,37.044914 41.478477,37.042397 
	C71.341721,36.990074 101.205078,37.007854 131.532623,37.088493 
z"/>
<path fill="#FFFFFF" opacity="1.000000" stroke="none" 
	d="
M295.990662,353.325073 
	C296.017883,351.699738 295.880524,350.241211 296.434296,349.125763 
	C303.868652,334.151337 311.399414,319.224823 319.296936,303.508789 
	C327.427917,319.881683 335.218384,335.568970 343.087524,351.627594 
	C335.517975,367.615051 327.869812,383.231140 319.647583,400.019287 
	C311.454498,383.853638 303.800964,368.752502 295.990662,353.325073 
z"/>
</svg>